<mxfile host="app.diagrams.net" modified="2024-06-26T07:22:12.303Z" agent="Mozilla/5.0 (Macintosh; Intel Mac OS X 10_15_7) AppleWebKit/537.36 (KHTML, like Gecko) Chrome/126.0.0.0 Safari/537.36" version="24.2.3" etag="ODwj4UDDP-_dEsPxloZb" type="github">
  <diagram name="Page-1" id="j1ily-13pOXV_0wP2RHP">
    <mxGraphModel>
      <root>
        <mxCell id="0" />
        <mxCell id="1" parent="0" />
      </root>
    </mxGraphModel>
  </diagram>
</mxfile>
